<mxfile host="app.diagrams.net" modified="2020-09-08T14:05:21.872Z" agent="5.0 (Windows NT 10.0; Win64; x64) AppleWebKit/537.36 (KHTML, like Gecko) Chrome/85.0.4183.83 Safari/537.36" etag="3LUg938JOtvJZ6-7EJx1" version="13.6.9" type="github">
  <diagram id="kgpKYQtTHZ0yAKxKKP6v" name="Page-1">
    <mxGraphModel dx="1730" dy="967" grid="1" gridSize="10" guides="1" tooltips="1" connect="1" arrows="1" fold="1" page="1" pageScale="1" pageWidth="850" pageHeight="1100" math="0" shadow="0">
      <root>
        <mxCell id="0" />
        <mxCell id="1" parent="0" />
        <mxCell id="3nuBFxr9cyL0pnOWT2aG-1" value="POS Application" style="shape=umlLifeline;perimeter=lifelinePerimeter;container=1;collapsible=0;recursiveResize=0;rounded=0;shadow=0;strokeWidth=1;" parent="1" vertex="1">
          <mxGeometry x="50" y="80" width="100" height="40" as="geometry" />
        </mxCell>
        <mxCell id="ri_0z-xZL42i4PwntrbF-12" value="" style="edgeStyle=orthogonalEdgeStyle;rounded=0;orthogonalLoop=1;jettySize=auto;html=1;" edge="1" parent="1" source="3nuBFxr9cyL0pnOWT2aG-5" target="ri_0z-xZL42i4PwntrbF-4">
          <mxGeometry relative="1" as="geometry" />
        </mxCell>
        <mxCell id="3nuBFxr9cyL0pnOWT2aG-5" value="Batch file storage" style="shape=umlLifeline;perimeter=lifelinePerimeter;container=1;collapsible=0;recursiveResize=0;rounded=0;shadow=0;strokeWidth=1;" parent="1" vertex="1">
          <mxGeometry x="580" width="120" height="40" as="geometry" />
        </mxCell>
        <mxCell id="ri_0z-xZL42i4PwntrbF-10" value="" style="edgeStyle=orthogonalEdgeStyle;rounded=0;orthogonalLoop=1;jettySize=auto;html=1;" edge="1" parent="1" source="ri_0z-xZL42i4PwntrbF-1" target="ri_0z-xZL42i4PwntrbF-3">
          <mxGeometry relative="1" as="geometry" />
        </mxCell>
        <mxCell id="ri_0z-xZL42i4PwntrbF-1" value="POS-DB" style="rounded=0;whiteSpace=wrap;html=1;" vertex="1" parent="1">
          <mxGeometry x="200" y="80" width="120" height="40" as="geometry" />
        </mxCell>
        <mxCell id="ri_0z-xZL42i4PwntrbF-2" value="" style="endArrow=classic;startArrow=classic;html=1;entryX=0;entryY=0.5;entryDx=0;entryDy=0;" edge="1" parent="1" target="ri_0z-xZL42i4PwntrbF-1">
          <mxGeometry width="50" height="50" relative="1" as="geometry">
            <mxPoint x="151" y="100" as="sourcePoint" />
            <mxPoint x="200" y="75" as="targetPoint" />
          </mxGeometry>
        </mxCell>
        <mxCell id="ri_0z-xZL42i4PwntrbF-11" value="" style="edgeStyle=orthogonalEdgeStyle;rounded=0;orthogonalLoop=1;jettySize=auto;html=1;" edge="1" parent="1" source="ri_0z-xZL42i4PwntrbF-3" target="ri_0z-xZL42i4PwntrbF-4">
          <mxGeometry relative="1" as="geometry" />
        </mxCell>
        <mxCell id="ri_0z-xZL42i4PwntrbF-3" value="Delta storage" style="rounded=0;whiteSpace=wrap;html=1;" vertex="1" parent="1">
          <mxGeometry x="360" y="80" width="120" height="40" as="geometry" />
        </mxCell>
        <mxCell id="ri_0z-xZL42i4PwntrbF-15" value="" style="edgeStyle=orthogonalEdgeStyle;rounded=0;orthogonalLoop=1;jettySize=auto;html=1;" edge="1" parent="1" source="ri_0z-xZL42i4PwntrbF-4" target="ri_0z-xZL42i4PwntrbF-6">
          <mxGeometry relative="1" as="geometry" />
        </mxCell>
        <mxCell id="ri_0z-xZL42i4PwntrbF-4" value="Stage" style="rounded=0;whiteSpace=wrap;html=1;" vertex="1" parent="1">
          <mxGeometry x="580" y="80" width="120" height="40" as="geometry" />
        </mxCell>
        <mxCell id="ri_0z-xZL42i4PwntrbF-17" value="" style="edgeStyle=orthogonalEdgeStyle;rounded=0;orthogonalLoop=1;jettySize=auto;html=1;" edge="1" parent="1" source="ri_0z-xZL42i4PwntrbF-5" target="ri_0z-xZL42i4PwntrbF-7">
          <mxGeometry relative="1" as="geometry" />
        </mxCell>
        <mxCell id="ri_0z-xZL42i4PwntrbF-5" value="Common Data Model" style="rounded=0;whiteSpace=wrap;html=1;" vertex="1" parent="1">
          <mxGeometry x="580" y="160" width="120" height="40" as="geometry" />
        </mxCell>
        <mxCell id="ri_0z-xZL42i4PwntrbF-6" value="ETL" style="rounded=0;whiteSpace=wrap;html=1;" vertex="1" parent="1">
          <mxGeometry x="580" y="240" width="120" height="40" as="geometry" />
        </mxCell>
        <mxCell id="ri_0z-xZL42i4PwntrbF-18" value="" style="edgeStyle=orthogonalEdgeStyle;rounded=0;orthogonalLoop=1;jettySize=auto;html=1;" edge="1" parent="1" source="ri_0z-xZL42i4PwntrbF-7" target="ri_0z-xZL42i4PwntrbF-8">
          <mxGeometry relative="1" as="geometry" />
        </mxCell>
        <mxCell id="ri_0z-xZL42i4PwntrbF-7" value="ETL O/P storage" style="rounded=0;whiteSpace=wrap;html=1;" vertex="1" parent="1">
          <mxGeometry x="580" y="320" width="120" height="40" as="geometry" />
        </mxCell>
        <mxCell id="ri_0z-xZL42i4PwntrbF-19" value="" style="edgeStyle=orthogonalEdgeStyle;rounded=0;orthogonalLoop=1;jettySize=auto;html=1;" edge="1" parent="1" source="ri_0z-xZL42i4PwntrbF-8" target="ri_0z-xZL42i4PwntrbF-9">
          <mxGeometry relative="1" as="geometry" />
        </mxCell>
        <mxCell id="ri_0z-xZL42i4PwntrbF-8" value="Algorithms" style="rounded=0;whiteSpace=wrap;html=1;" vertex="1" parent="1">
          <mxGeometry x="580" y="400" width="120" height="40" as="geometry" />
        </mxCell>
        <mxCell id="ri_0z-xZL42i4PwntrbF-20" value="" style="edgeStyle=orthogonalEdgeStyle;rounded=0;orthogonalLoop=1;jettySize=auto;html=1;" edge="1" parent="1" source="ri_0z-xZL42i4PwntrbF-9" target="ri_0z-xZL42i4PwntrbF-13">
          <mxGeometry relative="1" as="geometry" />
        </mxCell>
        <mxCell id="ri_0z-xZL42i4PwntrbF-9" value="Data Visualisation" style="rounded=0;whiteSpace=wrap;html=1;" vertex="1" parent="1">
          <mxGeometry x="580" y="480" width="120" height="40" as="geometry" />
        </mxCell>
        <mxCell id="ri_0z-xZL42i4PwntrbF-21" value="" style="edgeStyle=orthogonalEdgeStyle;rounded=0;orthogonalLoop=1;jettySize=auto;html=1;" edge="1" parent="1" source="ri_0z-xZL42i4PwntrbF-13" target="ri_0z-xZL42i4PwntrbF-14">
          <mxGeometry relative="1" as="geometry" />
        </mxCell>
        <mxCell id="ri_0z-xZL42i4PwntrbF-13" value="Decision making" style="rounded=0;whiteSpace=wrap;html=1;" vertex="1" parent="1">
          <mxGeometry x="580" y="560" width="120" height="40" as="geometry" />
        </mxCell>
        <mxCell id="ri_0z-xZL42i4PwntrbF-14" value="Business" style="rounded=1;whiteSpace=wrap;html=1;" vertex="1" parent="1">
          <mxGeometry x="580" y="640" width="120" height="40" as="geometry" />
        </mxCell>
      </root>
    </mxGraphModel>
  </diagram>
</mxfile>
